<svg width="23" height="25" viewBox="0 0 23 25" fill="none" xmlns="http://www.w3.org/2000/svg">
<path fill-rule="evenodd" clip-rule="evenodd" d="M6.63789 23.1577C6.63789 23.5695 6.96737 23.9402 7.42041 23.9402C7.87345 23.9402 8.24412 23.5695 8.24412 23.1165V6.39527L2.72529 2.52386H19.8584L14.6278 6.14816C14.2572 6.43646 14.1748 6.88949 14.4219 7.26016C14.669 7.63083 15.1632 7.7132 15.5339 7.46609L20.8468 3.75941C21.3822 3.34756 21.6293 2.6886 21.4234 2.07082C21.2175 1.45304 20.5997 1 19.8995 1H2.60173C1.90158 1 1.2838 1.41185 1.07788 2.07082C0.871952 2.6886 1.07788 3.38875 1.65447 3.75941L6.63789 7.21898V23.1577ZM11.7037 11.9554H21.1351C21.6293 11.9554 22 11.5848 22 11.0905V10.967C22 10.4728 21.5881 10.1021 21.1351 10.1021H11.7037C11.2095 10.1021 10.8388 10.5139 10.8388 10.967V11.0905C10.8388 11.5848 11.2506 11.9554 11.7037 11.9554ZM11.7037 15.6621H18.5404C19.0347 15.6621 19.4053 15.2914 19.4053 14.7972V14.6737C19.4053 14.1794 18.9935 13.8088 18.5404 13.8088H11.7037C11.2095 13.8088 10.8388 14.2206 10.8388 14.6737V14.7972C10.8388 15.2914 11.2506 15.6621 11.7037 15.6621ZM11.7037 19.3688H16.1105C16.5635 19.3688 16.9754 18.9981 16.9754 18.5039V18.3803C16.9754 17.8861 16.5635 17.5154 16.1105 17.5154H11.7037C11.2095 17.5154 10.8388 17.9273 10.8388 18.3803V18.5039C10.8388 18.9981 11.2506 19.3688 11.7037 19.3688Z" fill="#6B6B6F"/>
<path d="M8.24412 6.39527H8.34412V6.34327L8.30154 6.31341L8.24412 6.39527ZM2.72529 2.52386V2.42386H2.40861L2.66786 2.60572L2.72529 2.52386ZM19.8584 2.52386L19.9153 2.60605L20.1783 2.42386H19.8584V2.52386ZM14.6278 6.14816L14.5708 6.06584L14.5664 6.06922L14.6278 6.14816ZM14.4219 7.26016L14.5051 7.20469L14.4219 7.26016ZM15.5339 7.46609L15.5894 7.54931L15.5911 7.5481L15.5339 7.46609ZM20.8468 3.75941L20.9041 3.84152L20.9078 3.83868L20.8468 3.75941ZM21.4234 2.07082L21.3285 2.10244V2.10244L21.4234 2.07082ZM1.07788 2.07082L1.17276 2.10245L1.17333 2.10064L1.07788 2.07082ZM1.65447 3.75941L1.71153 3.67722L1.70855 3.6753L1.65447 3.75941ZM6.63789 7.21898H6.73789V7.16666L6.69492 7.13683L6.63789 7.21898ZM7.42041 23.8402C7.026 23.8402 6.73789 23.5178 6.73789 23.1577H6.53789C6.53789 23.6213 6.90875 24.0402 7.42041 24.0402V23.8402ZM8.14412 23.1165C8.14412 23.5143 7.81822 23.8402 7.42041 23.8402V24.0402C7.92868 24.0402 8.34412 23.6248 8.34412 23.1165H8.14412ZM8.14412 6.39527V23.1165H8.34412V6.39527H8.14412ZM2.66786 2.60572L8.18669 6.47714L8.30154 6.31341L2.78272 2.44199L2.66786 2.60572ZM19.8584 2.42386H2.72529V2.62386H19.8584V2.42386ZM14.6848 6.23036L19.9153 2.60605L19.8014 2.44166L14.5709 6.06596L14.6848 6.23036ZM14.5051 7.20469C14.2892 6.88081 14.3568 6.48563 14.6892 6.2271L14.5664 6.06922C14.1575 6.38728 14.0604 6.89818 14.3387 7.31563L14.5051 7.20469ZM15.4784 7.38288C15.1506 7.60145 14.7195 7.52633 14.5051 7.20469L14.3387 7.31563C14.6185 7.73533 15.1759 7.82495 15.5894 7.54929L15.4784 7.38288ZM20.7896 3.6774L15.4767 7.38408L15.5911 7.5481L20.904 3.84143L20.7896 3.6774ZM21.3285 2.10244C21.5189 2.67366 21.2929 3.29008 20.7858 3.68015L20.9078 3.83868C21.4715 3.40504 21.7397 2.70353 21.5183 2.03919L21.3285 2.10244ZM19.8995 1.1C20.5577 1.1 21.1365 1.52644 21.3285 2.10244L21.5183 2.03919C21.2984 1.37963 20.6417 0.9 19.8995 0.9V1.1ZM2.60173 1.1H19.8995V0.9H2.60173V1.1ZM1.17333 2.10064C1.36483 1.48783 1.94053 1.1 2.60173 1.1V0.9C1.86264 0.9 1.20278 1.33588 0.98243 2.04099L1.17333 2.10064ZM1.70855 3.6753C1.17353 3.33135 0.98007 2.68047 1.17275 2.10244L0.98301 2.03919C0.763834 2.69672 0.982228 3.44614 1.6004 3.84353L1.70855 3.6753ZM6.69492 7.13683L1.7115 3.67727L1.59745 3.84156L6.58086 7.30112L6.69492 7.13683ZM6.73789 23.1577V7.21898H6.53789V23.1577H6.73789ZM21.1351 11.8554H11.7037V12.0554H21.1351V11.8554ZM21.9 11.0905C21.9 11.5295 21.5741 11.8554 21.1351 11.8554V12.0554C21.6846 12.0554 22.1 11.64 22.1 11.0905H21.9ZM21.9 10.967V11.0905H22.1V10.967H21.9ZM21.1351 10.2021C21.536 10.2021 21.9 10.5311 21.9 10.967H22.1C22.1 10.4145 21.6403 10.0021 21.1351 10.0021V10.2021ZM11.7037 10.2021H21.1351V10.0021H11.7037V10.2021ZM10.9388 10.967C10.9388 10.5661 11.2678 10.2021 11.7037 10.2021V10.0021C11.1512 10.0021 10.7388 10.4618 10.7388 10.967H10.9388ZM10.9388 11.0905V10.967H10.7388V11.0905H10.9388ZM11.7037 11.8554C11.3028 11.8554 10.9388 11.5265 10.9388 11.0905H10.7388C10.7388 11.6431 11.1985 12.0554 11.7037 12.0554V11.8554ZM18.5404 15.5621H11.7037V15.7621H18.5404V15.5621ZM19.3053 14.7972C19.3053 15.2362 18.9794 15.5621 18.5404 15.5621V15.7621C19.0899 15.7621 19.5053 15.3467 19.5053 14.7972H19.3053ZM19.3053 14.6737V14.7972H19.5053V14.6737H19.3053ZM18.5404 13.9088C18.9414 13.9088 19.3053 14.2377 19.3053 14.6737H19.5053C19.5053 14.1211 19.0456 13.7088 18.5404 13.7088V13.9088ZM11.7037 13.9088H18.5404V13.7088H11.7037V13.9088ZM10.9388 14.6737C10.9388 14.2727 11.2678 13.9088 11.7037 13.9088V13.7088C11.1512 13.7088 10.7388 14.1685 10.7388 14.6737H10.9388ZM10.9388 14.7972V14.6737H10.7388V14.7972H10.9388ZM11.7037 15.5621C11.3028 15.5621 10.9388 15.2331 10.9388 14.7972H10.7388C10.7388 15.3497 11.1985 15.7621 11.7037 15.7621V15.5621ZM16.1105 19.2688H11.7037V19.4688H16.1105V19.2688ZM16.8754 18.5039C16.8754 18.9398 16.5114 19.2688 16.1105 19.2688V19.4688C16.6157 19.4688 17.0754 19.0564 17.0754 18.5039H16.8754ZM16.8754 18.3803V18.5039H17.0754V18.3803H16.8754ZM16.1105 17.6154C16.5114 17.6154 16.8754 17.9444 16.8754 18.3803H17.0754C17.0754 17.8278 16.6157 17.4154 16.1105 17.4154V17.6154ZM11.7037 17.6154H16.1105V17.4154H11.7037V17.6154ZM10.9388 18.3803C10.9388 17.9794 11.2678 17.6154 11.7037 17.6154V17.4154C11.1512 17.4154 10.7388 17.8752 10.7388 18.3803H10.9388ZM10.9388 18.5039V18.3803H10.7388V18.5039H10.9388ZM11.7037 19.2688C11.3028 19.2688 10.9388 18.9398 10.9388 18.5039H10.7388C10.7388 19.0564 11.1985 19.4688 11.7037 19.4688V19.2688Z" fill="#6B6B6F"/>
</svg>
